<?xml version="1.0" encoding="UTF-8"?>
<svg version="1.1" xmlns="http://www.w3.org/2000/svg" width="500" height="500">
<path d="M0 0 C3.49321945 2.11431703 5.63303363 4.80193369 7.375 8.4375 C7.95818496 12.11135346 7.85223287 15.6672433 7.6875 19.375 C7.66494141 20.34501953 7.64238281 21.31503906 7.61914062 22.31445312 C7.56061887 24.69043654 7.47870509 27.06313198 7.375 29.4375 C7.90609375 29.20933594 8.4371875 28.98117187 8.984375 28.74609375 C9.69078125 28.45863281 10.3971875 28.17117188 11.125 27.875 C11.82109375 27.58496094 12.5171875 27.29492188 13.234375 26.99609375 C15.72718521 26.34559765 16.98620238 26.52104305 19.375 27.4375 C20.72868596 28.75016518 22.06299596 30.08317325 23.375 31.4375 C26.66476808 32.53408936 28.08803767 32.23703138 31.375 31.4375 C28.37163777 27.97648257 26.06219232 26.74397436 21.625 25.6875 C20.64015625 25.44515625 19.6553125 25.2028125 18.640625 24.953125 C17.89296875 24.78296875 17.1453125 24.6128125 16.375 24.4375 C16.375 23.7775 16.375 23.1175 16.375 22.4375 C15.75625 22.169375 15.1375 21.90125 14.5 21.625 C12.375 20.4375 12.375 20.4375 10.375 17.4375 C10.07421875 15.09765625 10.07421875 15.09765625 10.0625 12.5 C10.04574219 11.64535156 10.02898437 10.79070312 10.01171875 9.91015625 C10.44820649 6.93922356 11.27136146 5.56084476 13.375 3.4375 C14.365 3.4375 15.355 3.4375 16.375 3.4375 C16.375 2.7775 16.375 2.1175 16.375 1.4375 C21.61894991 -0.84832432 25.90559381 -0.89418151 31.375 0.4375 C35.10265857 2.01762502 39.00045586 4.08520239 41.375 7.4375 C41.375 8.7575 41.375 10.0775 41.375 11.4375 C40.08586513 12.10904933 38.79359796 12.77458859 37.5 13.4375 C36.78070313 13.80875 36.06140625 14.18 35.3203125 14.5625 C33.375 15.4375 33.375 15.4375 31.375 15.4375 C31.16875 14.798125 30.9625 14.15875 30.75 13.5 C29.47961791 11.08824923 29.47961791 11.08824923 26.25 10.6875 C24.826875 10.56375 24.826875 10.56375 23.375 10.4375 C23.045 11.7575 22.715 13.0775 22.375 14.4375 C24.3240625 14.7778125 24.3240625 14.7778125 26.3125 15.125 C32.24290124 16.45746357 38.33714032 18.61584813 42 23.6875 C42.53723215 27.62720241 42.67323216 31.63979788 41.375 35.4375 C39.3203125 36.70703125 39.3203125 36.70703125 37.375 37.4375 C37.375 38.0975 37.375 38.7575 37.375 39.4375 C31.32312068 42.78447615 24.0037976 43.24535389 17.375 41.4375 C10.15997409 37.00744819 10.15997409 37.00744819 8.375 33.4375 C8.045 36.0775 7.715 38.7175 7.375 41.4375 C3.415 41.4375 -0.545 41.4375 -4.625 41.4375 C-4.955 31.5375 -5.285 21.6375 -5.625 11.4375 C-10.39381134 10.40296942 -10.39381134 10.40296942 -14.625 11.4375 C-15.62658069 14.8164982 -15.82078116 18.00026528 -15.94140625 21.515625 C-15.98330078 22.67578125 -16.02519531 23.8359375 -16.06835938 25.03125 C-16.12733398 26.84109375 -16.12733398 26.84109375 -16.1875 28.6875 C-16.23068359 29.90953125 -16.27386719 31.1315625 -16.31835938 32.390625 C-16.42437283 35.40611881 -16.5251844 38.42179468 -16.625 41.4375 C-20.585 41.4375 -24.545 41.4375 -28.625 41.4375 C-28.6743521 35.91993524 -28.71069662 30.40249829 -28.73486328 24.88476562 C-28.74493534 23.00681318 -28.75859362 21.12887647 -28.77587891 19.25097656 C-28.80007453 16.5552991 -28.81147083 13.85982854 -28.8203125 11.1640625 C-28.83063507 10.32130768 -28.84095764 9.47855286 -28.85159302 8.61026001 C-28.85199144 6.55128753 -28.74757588 4.49282065 -28.625 2.4375 C-26.625 0.4375 -26.625 0.4375 -24.56640625 0.20703125 C-23.78136719 0.22121094 -22.99632812 0.23539063 -22.1875 0.25 C-21.01380859 0.25966797 -21.01380859 0.25966797 -19.81640625 0.26953125 C-17.625 0.4375 -17.625 0.4375 -14.625 1.4375 C-13.8825 1.128125 -13.14 0.81875 -12.375 0.5 C-8.1471862 -1.13347351 -4.39318936 -0.94139772 0 0 Z " fill="#F2B2FA" transform="translate(315.625,229.5625)"/>
<path d="M0 0 C1.81661133 0.04060547 1.81661133 0.04060547 3.66992188 0.08203125 C11.80384779 0.35805939 18.34014417 0.90387185 24.4375 6.8125 C28.26556382 10.92572433 30.04902083 15.17781812 30.6875 20.75 C30.19601596 28.6137447 27.69109951 33.98758619 22.0625 39.4375 C15.95152345 44.54849857 10.14863545 44.8329796 2.390625 44.78515625 C1.31973633 44.78008057 0.24884766 44.77500488 -0.85449219 44.76977539 C-2.07120605 44.75998657 -2.07120605 44.75998657 -3.3125 44.75 C-3.28631592 45.45084717 -3.26013184 46.15169434 -3.2331543 46.8737793 C-3.1289646 50.0614565 -3.06410417 53.24877526 -3 56.4375 C-2.9371582 58.09168945 -2.9371582 58.09168945 -2.87304688 59.77929688 C-2.74867324 68.01283146 -2.74867324 68.01283146 -5.67578125 71.83984375 C-6.54589844 72.47019531 -7.41601562 73.10054688 -8.3125 73.75 C-9.1375 74.69875 -9.9625 75.6475 -10.8125 76.625 C-11.6375 77.32625 -12.4625 78.0275 -13.3125 78.75 C-14.9625 78.42 -16.6125 78.09 -18.3125 77.75 C-17.9825 52.34 -17.6525 26.93 -17.3125 0.75 C-11.51735377 -0.69878656 -5.94124455 -0.20670645 0 0 Z M-3.3125 12.75 C-4.35113773 18.98182639 -4.14538874 24.49692761 -3.3125 30.75 C-1.08441841 30.85853983 1.14519932 30.93583307 3.375 31 C4.61636719 31.04640625 5.85773438 31.0928125 7.13671875 31.140625 C11.29422738 30.68325331 12.87131895 29.80349967 15.6875 26.75 C16.68471757 23.63578422 16.44174479 20.91332516 15.6875 17.75 C13.26598684 14.34224804 13.26598684 14.34224804 9.6875 12.75 C5.31993178 12.35624533 1.05899044 12.45813491 -3.3125 12.75 Z " fill="#3AF5F9" transform="translate(129.3125,211.25)"/>
<path d="M0 0 C3.63 0 7.26 0 11 0 C12.58403524 1.58403524 12.21974935 3.2771638 12.31640625 5.47265625 C12.37924805 6.82133789 12.37924805 6.82133789 12.44335938 8.19726562 C12.48267578 9.14279297 12.52199219 10.08832031 12.5625 11.0625 C12.60568359 12.01189453 12.64886719 12.96128906 12.69335938 13.93945312 C12.79979276 16.29281353 12.90181008 18.64628354 13 21 C13.73476563 20.67 14.46953125 20.34 15.2265625 20 C19.38541942 18.50046849 22.78418879 18.74820623 27 20 C30.86545987 22.39974647 33.54726913 24.64180739 35 29 C36.13025263 39.73042313 36.58285451 50.31573208 35 61 C31.04 61 27.08 61 23 61 C22.12313415 54.26815587 21.87612803 47.7214632 21.9375 40.9375 C21.94201172 39.97650391 21.94652344 39.01550781 21.95117188 38.02539062 C21.96282274 35.68356617 21.98075254 33.34177434 22 31 C19.03 31 16.06 31 13 31 C12.97494385 31.87325928 12.9498877 32.74651855 12.92407227 33.64624023 C12.82912291 36.87602552 12.72987971 40.10564154 12.62768555 43.33520508 C12.58428566 44.73489199 12.54261436 46.13463359 12.50268555 47.53442383 C12.44510555 49.54261495 12.38086 51.55061149 12.31640625 53.55859375 C12.27974854 54.76829834 12.24309082 55.97800293 12.20532227 57.22436523 C12 60 12 60 11 61 C7.37 61 3.74 61 0 61 C0 40.87 0 20.74 0 0 Z " fill="#F2A3FA" transform="translate(360,210)"/>
<path d="M0 0 C0 0.66 0 1.32 0 2 C0.66 2 1.32 2 2 2 C4.03091001 6.20588112 4.23353223 9.62583452 4.1953125 14.26953125 C4.1924826 14.95053391 4.18965271 15.63153656 4.18673706 16.33317566 C4.17560525 18.49313455 4.15051457 20.65266794 4.125 22.8125 C4.11496111 24.28319711 4.10583685 25.75390076 4.09765625 27.22460938 C4.07568913 30.81654286 4.0412082 34.40822985 4 38 C-1 38 -6 38 -11 38 C-11.96550781 38.05800781 -12.93101562 38.11601562 -13.92578125 38.17578125 C-24.19530908 38.59035273 -24.19530908 38.59035273 -27.75 35.6875 C-30.9394078 31.87792957 -31.30105471 28.91258699 -31.2109375 23.9921875 C-30.7649775 19.78034306 -28.66560127 17.62962282 -25.6875 14.8125 C-20.58536796 11.58941403 -13.85470105 11.60953052 -8 11 C-9.83967258 8.94661486 -9.83967258 8.94661486 -12 7 C-14.60648505 6.83789781 -14.60648505 6.83789781 -17 8 C-18.82337753 9.9568288 -18.82337753 9.9568288 -20 12 C-27.75 11.125 -27.75 11.125 -30 10 C-29.9260095 6.8923991 -29.63075777 4.72426634 -27.55078125 2.3359375 C-18.42756519 -5.69882545 -10.43898264 -5.41280581 0 0 Z M-18.8125 22.375 C-20.26473287 23.96527869 -20.26473287 23.96527869 -19.6875 26.1875 C-19.460625 26.785625 -19.23375 27.38375 -19 28 C-14.46859347 28.93380961 -14.46859347 28.93380961 -10 28 C-10 27.34 -10 26.68 -10 26 C-9.34 26 -8.68 26 -8 26 C-8 24.35 -8 22.7 -8 21 C-9.43655854 20.91868537 -10.8744483 20.86066441 -12.3125 20.8125 C-13.11300781 20.77769531 -13.91351563 20.74289063 -14.73828125 20.70703125 C-17.07320653 20.81897989 -17.07320653 20.81897989 -18.8125 22.375 Z " fill="#E6E9FC" transform="translate(280,233)"/>
<path d="M0 0 C0.87527344 -0.04898438 1.75054687 -0.09796875 2.65234375 -0.1484375 C5.0625 0.375 5.0625 0.375 6.6796875 2.37890625 C8.39242074 6.08982827 9.85956643 9.84578354 11.25 13.6875 C11.52263672 14.42806641 11.79527344 15.16863281 12.07617188 15.93164062 C12.74281203 17.74443402 13.40328541 19.55949316 14.0625 21.375 C14.30484375 20.76914063 14.5471875 20.16328125 14.796875 19.5390625 C15.50062864 17.77967839 16.205105 16.02058326 16.91015625 14.26171875 C17.67337003 12.34980354 18.43126011 10.43575387 19.18359375 8.51953125 C19.71146484 7.17955078 19.71146484 7.17955078 20.25 5.8125 C20.57355469 4.98621094 20.89710938 4.15992188 21.23046875 3.30859375 C22.0625 1.375 22.0625 1.375 23.0625 0.375 C25.05859375 0.20703125 25.05859375 0.20703125 27.5 0.1875 C28.70462891 0.16623047 28.70462891 0.16623047 29.93359375 0.14453125 C32.0625 0.375 32.0625 0.375 34.0625 2.375 C31.11594975 11.488042 28.17917115 20.52734427 24.33203125 29.30859375 C23.3628715 31.64948731 22.50603763 33.95108009 21.69921875 36.34765625 C18.65471154 45.29909012 15.5671435 53.62596002 6.9140625 58.61328125 C3.06482732 60.23740093 1.16523465 60.40068366 -2.9375 59.375 C-2.9375 55.745 -2.9375 52.115 -2.9375 48.375 C-1.019375 47.7871875 -1.019375 47.7871875 0.9375 47.1875 C4.37178453 45.89327786 4.37178453 45.89327786 6.625 43 C7.35207553 38.6375468 6.02374283 34.9620982 4.390625 30.93359375 C3.89175781 29.69488525 3.89175781 29.69488525 3.3828125 28.43115234 C3.02960938 27.56699707 2.67640625 26.7028418 2.3125 25.8125 C1.95414063 24.9251416 1.59578125 24.0377832 1.2265625 23.12353516 C-1.16346615 17.22046528 -3.60627573 11.3415932 -6.125 5.4921875 C-6.9375 3.375 -6.9375 3.375 -6.9375 1.375 C-4.50270995 0.15760498 -2.71670476 0.10372147 0 0 Z " fill="#C4ECFB" transform="translate(216.9375,229.625)"/>
<path d="M0 0 C8.91 0 17.82 0 27 0 C27.99 0.99 28.98 1.98 30 3 C30 3.66 30 4.32 30 5 C23.01590942 6.33030297 16.09468497 6.06756843 9 6 C9.33 14.25 9.66 22.5 10 31 C14.8016221 30.92110571 14.8016221 30.92110571 19.6027832 30.81982422 C23.31447871 30.78900527 24.83533664 30.89022442 28 33 C28 33.99 28 34.98 28 36 C24.39257938 37.20247354 21.12298119 37.07045077 17.375 37 C14.90994869 36.9541812 12.46654055 36.95290615 10 37 C8.3824618 38.6175382 8.83406807 40.42988714 8.7890625 42.6640625 C8.76070312 43.62183594 8.73234375 44.57960938 8.703125 45.56640625 C8.6516447 47.58186 8.60720247 49.59750766 8.5703125 51.61328125 C8.38287804 57.46279839 7.97497699 61.90191167 5 67 C3.35 68.32 1.7 69.64 0 71 C0 47.57 0 24.14 0 0 Z " fill="#22F6FB" transform="translate(115,215)"/>
<path d="M0 0 C3.63 0 7.26 0 11 0 C12.58403524 1.58403524 12.21974935 3.2771638 12.31640625 5.47265625 C12.37924805 6.82133789 12.37924805 6.82133789 12.44335938 8.19726562 C12.48267578 9.14279297 12.52199219 10.08832031 12.5625 11.0625 C12.60568359 12.01189453 12.64886719 12.96128906 12.69335938 13.93945312 C12.79979276 16.29281353 12.90181008 18.64628354 13 21 C13.73476563 20.67 14.46953125 20.34 15.2265625 20 C19.38541942 18.50046849 22.78418879 18.74820623 27 20 C30.86545987 22.39974647 33.54726913 24.64180739 35 29 C36.13025263 39.73042313 36.58285451 50.31573208 35 61 C31.04 61 27.08 61 23 61 C22.12313415 54.26815587 21.87612803 47.7214632 21.9375 40.9375 C21.94201172 39.97650391 21.94652344 39.01550781 21.95117188 38.02539062 C21.96282294 35.68352578 21.97917975 33.34179819 22 31 C22.99 31 23.98 31 25 31 C26.07917226 34.23751678 26.11425601 36.57751771 26.09765625 39.98046875 C26.09443359 41.14384766 26.09121094 42.30722656 26.08789062 43.50585938 C26.07951172 44.72080078 26.07113281 45.93574219 26.0625 47.1875 C26.05798828 48.41404297 26.05347656 49.64058594 26.04882812 50.90429688 C26.03703065 53.93624668 26.02056921 56.96809906 26 60 C28.97 59.505 28.97 59.505 32 59 C31.88148693 54.80059793 31.75722118 50.6014169 31.62768555 46.40234375 C31.58444682 44.97465612 31.54276415 43.54692046 31.50268555 42.11914062 C31.44471398 40.06365504 31.38109825 38.00840872 31.31640625 35.953125 C31.27974854 34.71723633 31.24309082 33.48134766 31.20532227 32.20800781 C31.01238306 28.50700819 31.01238306 28.50700819 30 25 C26.93301363 23.97767121 24.71335122 23.8340951 21.5 23.8125 C20.5409375 23.79832031 19.581875 23.78414062 18.59375 23.76953125 C15.76253861 23.81244889 15.76253861 23.81244889 13 26 C11.68 26 10.36 26 9 26 C9 18.74 9 11.48 9 4 C7.02 4 5.04 4 3 4 C3.33 22.15 3.66 40.3 4 59 C5.65 59.33 7.3 59.66 9 60 C8.99476318 59.25838623 8.98952637 58.51677246 8.98413086 57.75268555 C8.96336386 54.39763229 8.9503407 51.04259256 8.9375 47.6875 C8.92912109 46.52025391 8.92074219 45.35300781 8.91210938 44.15039062 C8.90888672 43.03212891 8.90566406 41.91386719 8.90234375 40.76171875 C8.89710693 39.73006592 8.89187012 38.69841309 8.88647461 37.63549805 C9 35 9 35 10 32 C10.66 32 11.32 32 12 32 C12.33 30.68 12.66 29.36 13 28 C15.31 28.33 17.62 28.66 20 29 C20 29.33 20 29.66 20 30 C17.69 30.33 15.38 30.66 13 31 C12.97494385 31.87325928 12.9498877 32.74651855 12.92407227 33.64624023 C12.82912291 36.87602552 12.72987971 40.10564154 12.62768555 43.33520508 C12.58428566 44.73489199 12.54261436 46.13463359 12.50268555 47.53442383 C12.44510555 49.54261495 12.38086 51.55061149 12.31640625 53.55859375 C12.27974854 54.76829834 12.24309082 55.97800293 12.20532227 57.22436523 C12 60 12 60 11 61 C7.37 61 3.74 61 0 61 C0 40.87 0 20.74 0 0 Z " fill="#D179EC" transform="translate(360,210)"/>
<path d="M0 0 C1.19109375 -0.00386719 1.19109375 -0.00386719 2.40625 -0.0078125 C4.5 0.125 4.5 0.125 6.5 1.125 C7.83602205 0.80261207 9.16891752 0.46721092 10.5 0.125 C12.24886981 0.05875493 14.00002748 0.03947405 15.75 0.0625 C16.64203125 0.07152344 17.5340625 0.08054688 18.453125 0.08984375 C19.12859375 0.10144531 19.8040625 0.11304688 20.5 0.125 C20.83 0.785 21.16 1.445 21.5 2.125 C16.82942954 10.43964191 16.82942954 10.43964191 13.61328125 12.09765625 C11.92649186 12.51846954 10.21302052 12.82851568 8.5 13.125 C5.82151454 15.80348546 6.19495994 17.26470861 6.0859375 21.0078125 C6.02792969 22.75771484 6.02792969 22.75771484 5.96875 24.54296875 C5.9378125 25.76628906 5.906875 26.98960937 5.875 28.25 C5.81699219 30.09658203 5.81699219 30.09658203 5.7578125 31.98046875 C5.66330325 35.02839211 5.58055377 38.07667589 5.5 41.125 C1.54 41.125 -2.42 41.125 -6.5 41.125 C-6.5 27.925 -6.5 14.725 -6.5 1.125 C-4.13386544 -0.05806728 -2.63219264 -0.00854608 0 0 Z " fill="#75F4FD" transform="translate(170.5,229.875)"/>
<path d="M0 0 C2.45243461 1.90063682 3.62927427 3.25854855 5 6 C5.08573394 8.25120742 5.10712188 10.50499303 5.09765625 12.7578125 C5.0962413 13.42086395 5.09482635 14.08391541 5.09336853 14.76705933 C5.08776754 16.88641863 5.075215 19.00567259 5.0625 21.125 C5.05748512 22.56119639 5.05292219 23.99739444 5.04882812 25.43359375 C5.03779782 28.95576345 5.02053259 32.47787145 5 36 C3.35 36 1.7 36 0 36 C-1.28299701 33.43400597 -1.17617702 31.49511714 -1.24609375 28.625 C-1.27896484 27.55765625 -1.31183594 26.4903125 -1.34570312 25.390625 C-1.40689827 23.13031064 -1.46419045 20.86988724 -1.51757812 18.609375 C-1.55173828 17.54203125 -1.58589844 16.4746875 -1.62109375 15.375 C-1.6461499 14.39273438 -1.67120605 13.41046875 -1.69702148 12.3984375 C-1.77417493 9.81721721 -1.77417493 9.81721721 -4 8 C-7.65498696 7.12598138 -10.4195345 6.7606081 -14 8 C-15.00158069 11.3789982 -15.19578116 14.56276528 -15.31640625 18.078125 C-15.35830078 19.23828125 -15.40019531 20.3984375 -15.44335938 21.59375 C-15.50233398 23.40359375 -15.50233398 23.40359375 -15.5625 25.25 C-15.60568359 26.47203125 -15.64886719 27.6940625 -15.69335938 28.953125 C-15.79937355 31.9686392 -15.90143936 34.98423448 -16 38 C-21.75 38.125 -21.75 38.125 -24 37 C-24 24.79 -24 12.58 -24 0 C-22.02 0 -20.04 0 -18 0 C-18 0.99 -18 1.98 -18 3 C-7.06213224 -1.65872145 -7.06213224 -1.65872145 0 0 Z " fill="#F2DBFB" transform="translate(315,233)"/>
<path d="M0 0 C3.49321945 2.11431703 5.63303363 4.80193369 7.375 8.4375 C7.95818496 12.11135346 7.85223287 15.6672433 7.6875 19.375 C7.66494141 20.34501953 7.64238281 21.31503906 7.61914062 22.31445312 C7.56061887 24.69043654 7.47870509 27.06313198 7.375 29.4375 C7.90609375 29.20933594 8.4371875 28.98117187 8.984375 28.74609375 C9.69078125 28.45863281 10.3971875 28.17117188 11.125 27.875 C11.82109375 27.58496094 12.5171875 27.29492188 13.234375 26.99609375 C15.72213824 26.34691466 16.98859631 26.5331786 19.375 27.4375 C20.75201298 28.72567344 22.08144173 30.06554426 23.375 31.4375 C25.02691491 32.78906675 26.69022656 34.12712066 28.375 35.4375 C25.00795715 35.6670711 22.96129732 35.77693529 20 34.0625 C19.46375 33.52625 18.9275 32.99 18.375 32.4375 C18.375 31.7775 18.375 31.1175 18.375 30.4375 C16.725 31.0975 15.075 31.7575 13.375 32.4375 C14.87723584 36.64376034 17.66050034 38.17650021 21.375 40.4375 C19.63671875 41.11328125 19.63671875 41.11328125 17.375 41.4375 C15.26953125 40.29296875 15.26953125 40.29296875 13.1875 38.625 C12.49269531 38.08230469 11.79789062 37.53960937 11.08203125 36.98046875 C9.375 35.4375 9.375 35.4375 8.375 33.4375 C8.045 36.0775 7.715 38.7175 7.375 41.4375 C3.415 41.4375 -0.545 41.4375 -4.625 41.4375 C-4.955 31.5375 -5.285 21.6375 -5.625 11.4375 C-4.635 11.4375 -3.645 11.4375 -2.625 11.4375 C-1.28393595 14.1196281 -1.41049581 16.32148032 -1.30859375 19.3203125 C-1.26669922 20.48691406 -1.22480469 21.65351563 -1.18164062 22.85546875 C-1.14232422 24.07878906 -1.10300781 25.30210937 -1.0625 26.5625 C-1.01931641 27.79355469 -0.97613281 29.02460938 -0.93164062 30.29296875 C-0.82531296 33.34102853 -0.72328219 36.3891719 -0.625 39.4375 C1.025 39.4375 2.675 39.4375 4.375 39.4375 C4.28125199 35.23789396 4.17511195 31.03883688 4.05761719 26.83984375 C4.01939976 25.41219602 3.98453428 23.98445437 3.953125 22.55664062 C3.90731599 20.50096132 3.8493502 18.44592446 3.7890625 16.390625 C3.7576416 15.15473633 3.7262207 13.91884766 3.69384766 12.64550781 C3.39551555 9.64391221 3.05166087 7.90952825 1.375 5.4375 C-2.30020027 3.39572207 -5.4650154 3.00416827 -9.625 3.4375 C-11.31256133 4.40182076 -12.98166496 5.39960419 -14.625 6.4375 C-15.945 6.4375 -17.265 6.4375 -18.625 6.4375 C-18.625 5.4475 -18.625 4.4575 -18.625 3.4375 C-20.605 3.4375 -22.585 3.4375 -24.625 3.4375 C-24.625 15.6475 -24.625 27.8575 -24.625 40.4375 C-23.965 40.7675 -23.305 41.0975 -22.625 41.4375 C-24.605 41.4375 -26.585 41.4375 -28.625 41.4375 C-28.6743521 35.91993524 -28.71069662 30.40249829 -28.73486328 24.88476562 C-28.74493534 23.00681318 -28.75859362 21.12887647 -28.77587891 19.25097656 C-28.80007453 16.5552991 -28.81147083 13.85982854 -28.8203125 11.1640625 C-28.83063507 10.32130768 -28.84095764 9.47855286 -28.85159302 8.61026001 C-28.85199144 6.55128753 -28.74757588 4.49282065 -28.625 2.4375 C-26.625 0.4375 -26.625 0.4375 -24.56640625 0.20703125 C-23.78136719 0.22121094 -22.99632812 0.23539063 -22.1875 0.25 C-21.01380859 0.25966797 -21.01380859 0.25966797 -19.81640625 0.26953125 C-17.625 0.4375 -17.625 0.4375 -14.625 1.4375 C-13.8825 1.128125 -13.14 0.81875 -12.375 0.5 C-8.1471862 -1.13347351 -4.39318936 -0.94139772 0 0 Z " fill="#C4A4E5" transform="translate(315.625,229.5625)"/>
<path d="M0 0 C1.51400391 0.01740234 1.51400391 0.01740234 3.05859375 0.03515625 C4.07050781 0.04417969 5.08242187 0.05320313 6.125 0.0625 C7.29869141 0.07990234 7.29869141 0.07990234 8.49609375 0.09765625 C9.5190445 4.31034421 9.64161333 8.38898951 9.62890625 12.69921875 C9.62986298 13.41749847 9.6308197 14.1357782 9.63180542 14.87582397 C9.63248321 16.38694344 9.63065701 17.89806588 9.62646484 19.40917969 C9.62109511 21.72207143 9.62643145 24.03477038 9.6328125 26.34765625 C9.63215195 27.81901084 9.63087128 29.29036532 9.62890625 30.76171875 C9.63093048 31.45238434 9.63295471 32.14304993 9.63504028 32.85464478 C9.62022199 35.88359002 9.4622756 38.1991107 8.49609375 41.09765625 C4.53609375 41.09765625 0.57609375 41.09765625 -3.50390625 41.09765625 C-3.5285533 35.41935547 -3.54674087 29.74108556 -3.55883789 24.06274414 C-3.56387881 22.1294704 -3.57071144 20.19620049 -3.5793457 18.26293945 C-3.5914219 15.49038753 -3.59713682 12.71788584 -3.6015625 9.9453125 C-3.60672379 9.07552261 -3.61188507 8.20573273 -3.61720276 7.30958557 C-3.6173981 5.23859811 -3.56598793 3.16771301 -3.50390625 1.09765625 C-2.50390625 0.09765625 -2.50390625 0.09765625 0 0 Z " fill="#88D5F2" transform="translate(197.50390625,229.90234375)"/>
<path d="M0 0 C3.90058462 2.1003148 6.73453551 4.18629695 9 8 C9.34057617 11.02441406 9.34057617 11.02441406 9.29296875 14.515625 C9.28330078 15.76601562 9.27363281 17.01640625 9.26367188 18.3046875 C9.23853516 19.60664063 9.21339844 20.90859375 9.1875 22.25 C9.16719727 24.22613281 9.16719727 24.22613281 9.14648438 26.2421875 C9.11112551 29.49520321 9.06177033 32.747396 9 36 C6.525 36.495 6.525 36.495 4 37 C4 35.02 4 33.04 4 31 C3.34 31 2.68 31 2 31 C2.33 27.7 2.66 24.4 3 21 C-2.28 21.33 -7.56 21.66 -13 22 C-13.33 22.99 -13.66 23.98 -14 25 C-14.99 24.67 -15.98 24.34 -17 24 C-17 23.34 -17 22.68 -17 22 C-15.68 21.67 -14.36 21.34 -13 21 C-12.67 19.68 -12.34 18.36 -12 17 C-7.71 16.34 -3.42 15.68 1 15 C1.33 13.02 1.66 11.04 2 9 C-3.0247239 8.37470103 -7.92528427 7.86987908 -13 8 C-13.33 8.99 -13.66 9.98 -14 11 C-15.32 11 -16.64 11 -18 11 C-16.36721828 4.2356186 -16.36721828 4.2356186 -14.1796875 2.83203125 C-9.3068527 0.67642128 -5.4220386 -0.81842092 0 0 Z " fill="#EEEBFC" transform="translate(272,232)"/>
<path d="M0 0 C4.81310289 3.27290997 4.81310289 3.27290997 6.125 5.125 C6.125 6.445 6.125 7.765 6.125 9.125 C4.83586513 9.79654933 3.54359796 10.46208859 2.25 11.125 C1.53070313 11.49625 0.81140625 11.8675 0.0703125 12.25 C-1.875 13.125 -1.875 13.125 -3.875 13.125 C-4.08125 12.485625 -4.2875 11.84625 -4.5 11.1875 C-5.77038209 8.77574923 -5.77038209 8.77574923 -9 8.375 C-9.94875 8.2925 -10.8975 8.21 -11.875 8.125 C-12.205 9.445 -12.535 10.765 -12.875 12.125 C-11.575625 12.351875 -10.27625 12.57875 -8.9375 12.8125 C-3.00709876 14.14496357 3.08714032 16.30334813 6.75 21.375 C7.29698983 25.38625875 6.76639361 29.14662614 6.125 33.125 C5.135 33.125 4.145 33.125 3.125 33.125 C3.13660156 32.52171875 3.14820313 31.9184375 3.16015625 31.296875 C3.16917969 30.49765625 3.17820312 29.6984375 3.1875 28.875 C3.19910156 28.08609375 3.21070313 27.2971875 3.22265625 26.484375 C3.12885306 24.21808998 2.75741063 22.2961105 2.125 20.125 C1.41214844 19.95484375 0.69929688 19.7846875 -0.03515625 19.609375 C-5.93246799 18.11718845 -10.75869912 16.42217168 -15.875 13.125 C-15.5625 9.75 -15.5625 9.75 -14.875 6.125 C-13.885 5.465 -12.895 4.805 -11.875 4.125 C-14.16794488 3.26525199 -14.16794488 3.26525199 -16.875 3.125 C-19.39207157 4.38862699 -19.39207157 4.38862699 -20.875 7.125 C-21.4367958 10.22338897 -21.46783758 13.02970378 -20.875 16.125 C-19.02079161 18.56598818 -19.02079161 18.56598818 -16.875 20.125 C-16.875 20.785 -16.875 21.445 -16.875 22.125 C-17.535 22.125 -18.195 22.125 -18.875 22.125 C-18.875 21.465 -18.875 20.805 -18.875 20.125 C-19.49375 19.856875 -20.1125 19.58875 -20.75 19.3125 C-22.875 18.125 -22.875 18.125 -24.875 15.125 C-25.17578125 12.78515625 -25.17578125 12.78515625 -25.1875 10.1875 C-25.20425781 9.33285156 -25.22101563 8.47820312 -25.23828125 7.59765625 C-24.80179351 4.62672356 -23.97863854 3.24834476 -21.875 1.125 C-20.885 1.125 -19.895 1.125 -18.875 1.125 C-18.875 0.465 -18.875 -0.195 -18.875 -0.875 C-12.39517082 -3.69954092 -6.18581641 -3.40023735 0 0 Z " fill="#F1ACF9" transform="translate(350.875,231.875)"/>
<path d="M0 0 C0.66 0.66 1.32 1.32 2 2 C4.91487922 2.27876767 4.91487922 2.27876767 8.3203125 2.1953125 C9.57714844 2.18886719 10.83398438 2.18242187 12.12890625 2.17578125 C13.44761719 2.15902344 14.76632813 2.14226562 16.125 2.125 C17.46483721 2.11496983 18.80468152 2.10584404 20.14453125 2.09765625 C23.42986573 2.07402075 26.71484465 2.04107234 30 2 C30 2.33 30 2.66 30 3 C21.09 3 12.18 3 3 3 C3.33 26.1 3.66 49.2 4 73 C10.95429898 68.13583218 10.95429898 68.13583218 11.88647461 64.02392578 C11.89171143 63.0079834 11.89694824 61.99204102 11.90234375 60.9453125 C11.93618164 59.28242188 11.93618164 59.28242188 11.97070312 57.5859375 C11.95974609 56.44382812 11.94878906 55.30171875 11.9375 54.125 C11.96166992 52.37703125 11.96166992 52.37703125 11.98632812 50.59375 C12.02154579 47.72937954 12.01489735 44.86454822 12 42 C18.93 41.34 25.86 40.68 33 40 C32.67 40.99 32.34 41.98 32 43 C27.87986934 43.91558459 23.96579098 44.05401513 19.765625 44.03125 C18.14575684 44.02448242 18.14575684 44.02448242 16.49316406 44.01757812 C15.67041992 44.01177734 14.84767578 44.00597656 14 44 C14.02618408 44.70084717 14.05236816 45.40169434 14.0793457 46.1237793 C14.1835354 49.3114565 14.24839583 52.49877526 14.3125 55.6875 C14.3753418 57.34168945 14.3753418 57.34168945 14.43945312 59.02929688 C14.56382676 67.26283146 14.56382676 67.26283146 11.63671875 71.08984375 C10.76660156 71.72019531 9.89648438 72.35054688 9 73 C8.175 73.94875 7.35 74.8975 6.5 75.875 C5.675 76.57625 4.85 77.2775 4 78 C2.35 77.67 0.7 77.34 -1 77 C-0.67 51.59 -0.34 26.18 0 0 Z " fill="#37CDE0" transform="translate(112,212)"/>
<path d="M0 0 C2.45243461 1.90063682 3.62927427 3.25854855 5 6 C5.08573394 8.25120742 5.10712188 10.50499303 5.09765625 12.7578125 C5.0962413 13.42086395 5.09482635 14.08391541 5.09336853 14.76705933 C5.08776754 16.88641863 5.075215 19.00567259 5.0625 21.125 C5.05748512 22.56119639 5.05292219 23.99739444 5.04882812 25.43359375 C5.03779782 28.95576345 5.02053259 32.47787145 5 36 C3.35 36 1.7 36 0 36 C-1.28299701 33.43400597 -1.17617702 31.49511714 -1.24609375 28.625 C-1.27896484 27.55765625 -1.31183594 26.4903125 -1.34570312 25.390625 C-1.40689827 23.13031064 -1.46419045 20.86988724 -1.51757812 18.609375 C-1.55173828 17.54203125 -1.58589844 16.4746875 -1.62109375 15.375 C-1.65867798 13.90160156 -1.65867798 13.90160156 -1.69702148 12.3984375 C-1.77417493 9.81721721 -1.77417493 9.81721721 -4 8 C-7.65498696 7.12598138 -10.4195345 6.7606081 -14 8 C-14.33 7.01 -14.66 6.02 -15 5 C-15.66 4.34 -16.32 3.68 -17 3 C-11.28718573 -0.62693658 -6.62829313 -2.07460356 0 0 Z " fill="#F3C9FA" transform="translate(315,233)"/>
<path d="M0 0 C2.36552932 1.8147658 2.95754526 2.73220672 3.43237305 5.72729492 C3.45855713 6.80084229 3.48474121 7.87438965 3.51171875 8.98046875 C3.54716797 10.14384766 3.58261719 11.30722656 3.61914062 12.50585938 C3.64169922 13.72080078 3.66425781 14.93574219 3.6875 16.1875 C3.72166016 17.41404297 3.75582031 18.64058594 3.79101562 19.90429688 C3.8735941 22.93610678 3.94271369 25.96762379 4 29 C5.65 29 7.3 29 9 29 C9 19.76 9 10.52 9 1 C9.99 1 10.98 1 12 1 C12 6.94 12 12.88 12 19 C15.96 17.515 15.96 17.515 20 16 C24.34676871 17.08669218 25.05531703 17.8768514 28 21 C29.65191491 22.35156675 31.31522656 23.68962066 33 25 C29.63295715 25.2295711 27.58629732 25.33943529 24.625 23.625 C24.08875 23.08875 23.5525 22.5525 23 22 C23 21.34 23 20.68 23 20 C21.35 20.66 19.7 21.32 18 22 C19.50223584 26.20626034 22.28550034 27.73900021 26 30 C24.26171875 30.67578125 24.26171875 30.67578125 22 31 C19.89453125 29.85546875 19.89453125 29.85546875 17.8125 28.1875 C17.11769531 27.64480469 16.42289062 27.10210937 15.70703125 26.54296875 C14 25 14 25 13 23 C12.67 25.64 12.34 28.28 12 31 C8.04 31 4.08 31 0 31 C-0.16727437 26.74607233 -0.32786758 22.49196191 -0.48217773 18.23754883 C-0.53566237 16.78923699 -0.59099659 15.34099225 -0.64819336 13.89282227 C-0.72992512 11.81541418 -0.80507768 9.7378583 -0.87890625 7.66015625 C-0.9260376 6.40855713 -0.97316895 5.15695801 -1.02172852 3.86743164 C-1 1 -1 1 0 0 Z " fill="#DD98F2" transform="translate(311,240)"/>
<path d="M0 0 C0 0.66 0 1.32 0 2 C0.66 2 1.32 2 2 2 C4.03091001 6.20588112 4.23353223 9.62583452 4.1953125 14.26953125 C4.1924826 14.95053391 4.18965271 15.63153656 4.18673706 16.33317566 C4.17560525 18.49313455 4.15051457 20.65266794 4.125 22.8125 C4.11496111 24.28319711 4.10583685 25.75390076 4.09765625 27.22460938 C4.07568913 30.81654286 4.0412082 34.40822985 4 38 C2.06257659 38.02703381 0.12504521 38.04641125 -1.8125 38.0625 C-2.89144531 38.07410156 -3.97039062 38.08570313 -5.08203125 38.09765625 C-8 38 -8 38 -11 37 C-10.67 36.01 -10.34 35.02 -10 34 C-6.7 34.33 -3.4 34.66 0 35 C0.11625936 30.43771459 0.18727408 25.87581072 0.25 21.3125 C0.28351563 20.01892578 0.31703125 18.72535156 0.3515625 17.39257812 C0.37089844 15.52182617 0.37089844 15.52182617 0.390625 13.61328125 C0.41157227 12.46641846 0.43251953 11.31955566 0.45410156 10.13793945 C-0.09591763 6.33718853 -1.36566334 4.73501783 -4 2 C-7.50617918 -0.53895733 -10.77171117 -0.34658105 -15 0 C-18.13837361 0.69459965 -21.20306818 1.3914641 -24 3 C-24.76499085 4.91402334 -24.76499085 4.91402334 -25 7 C-25.33 7.99 -25.66 8.98 -26 10 C-24.02463255 9.65213292 -24.02463255 9.65213292 -22 9 C-21.67 8.34 -21.34 7.68 -21 7 C-19.68 7.33 -18.36 7.66 -17 8 C-17.99 9.32 -18.98 10.64 -20 12 C-27.75 11.125 -27.75 11.125 -30 10 C-29.9260095 6.8923991 -29.63075777 4.72426634 -27.55078125 2.3359375 C-18.42756519 -5.69882545 -10.43898264 -5.41280581 0 0 Z " fill="#B1B4ED" transform="translate(280,233)"/>
<path d="M0 0 C1.21558594 0.02707031 2.43117187 0.05414063 3.68359375 0.08203125 C11.83671848 0.35765488 18.38793046 0.88961357 24.5 6.8125 C28.32806382 10.92572433 30.11152083 15.17781812 30.75 20.75 C30.29510075 28.02838799 28.07688032 33.13225964 23.25 38.5625 C20.75 40.75 20.75 40.75 17.75 40.75 C17.75 40.09 17.75 39.43 17.75 38.75 C19.22704212 37.49772516 20.70827399 36.24833478 22.2421875 35.06640625 C24.4418946 33.14593658 25.67333143 31.48160009 25.98046875 28.55078125 C25.88817483 23.20612427 25.533634 18.03952947 24.75 12.75 C23.76 12.75 22.77 12.75 21.75 12.75 C21.564375 11.986875 21.37875 11.22375 21.1875 10.4375 C19.11554378 6.56384272 16.82713462 6.18454737 12.75 4.75 C12.75 4.09 12.75 3.43 12.75 2.75 C3.51 2.75 -5.73 2.75 -15.25 2.75 C-15.25 21.89 -15.25 41.03 -15.25 60.75 C-15.58 60.75 -15.91 60.75 -16.25 60.75 C-16.25 40.95 -16.25 21.15 -16.25 0.75 C-11.0138335 -0.99538883 -5.4676015 -0.18893283 0 0 Z " fill="#50E0F1" transform="translate(129.25,211.25)"/>
<path d="M0 0 C1.485 0.99 1.485 0.99 3 2 C3.39872742 4.32852173 3.39872742 4.32852173 3.43237305 7.27587891 C3.45216721 8.3768692 3.47196136 9.4778595 3.49235535 10.61221313 C3.49874527 11.80494843 3.50513519 12.99768372 3.51171875 14.2265625 C3.52966995 15.44451508 3.54762115 16.66246765 3.56611633 17.91732788 C3.62043918 21.81984968 3.65418616 25.72224767 3.6875 29.625 C3.72065358 32.26564232 3.75514138 34.90626824 3.79101562 37.546875 C3.87617828 44.03113898 3.94443477 50.51541855 4 57 C5.65 57.33 7.3 57.66 9 58 C8.99476318 57.25838623 8.98952637 56.51677246 8.98413086 55.75268555 C8.96336386 52.39763229 8.9503407 49.04259256 8.9375 45.6875 C8.92912109 44.52025391 8.92074219 43.35300781 8.91210938 42.15039062 C8.90888672 41.03212891 8.90566406 39.91386719 8.90234375 38.76171875 C8.89710693 37.73006592 8.89187012 36.69841309 8.88647461 35.63549805 C9 33 9 33 10 30 C10.66 30 11.32 30 12 30 C12.33 28.68 12.66 27.36 13 26 C15.31 26.33 17.62 26.66 20 27 C20 27.33 20 27.66 20 28 C17.69 28.33 15.38 28.66 13 29 C12.97494385 29.87325928 12.9498877 30.74651855 12.92407227 31.64624023 C12.82912291 34.87602552 12.72987971 38.10564154 12.62768555 41.33520508 C12.58428566 42.73489199 12.54261436 44.13463359 12.50268555 45.53442383 C12.44510555 47.54261495 12.38086 49.55061149 12.31640625 51.55859375 C12.27974854 52.76829834 12.24309082 53.97800293 12.20532227 55.22436523 C12 58 12 58 11 59 C7.37 59 3.74 59 0 59 C0 39.53 0 20.06 0 0 Z " fill="#E38BF5" transform="translate(360,212)"/>
<path d="M0 0 C2.71604883 1.92982417 3.74692606 3.34200775 4.9375 6.4375 C5.01876251 9.76926305 3.92368819 11.33643174 2 14 C0.43081508 15.56918492 -1.14085159 15.28258943 -3.3125 15.375 C-6.8663378 15.32398797 -7.72497905 15.21608789 -10.625 12.9375 C-12.42593997 9.09003735 -12.19823746 7.04405144 -11 3 C-7.92160879 -0.67038952 -4.56677188 -0.57084649 0 0 Z " fill="#A4EBF9" transform="translate(204,211)"/>
<path d="M0 0 C0.87527344 -0.04898438 1.75054687 -0.09796875 2.65234375 -0.1484375 C5.0625 0.375 5.0625 0.375 6.68359375 2.390625 C8.36872339 6.03776111 9.81887049 9.72423317 11.1875 13.5 C11.45175781 14.21542969 11.71601563 14.93085938 11.98828125 15.66796875 C13.05259174 18.5583551 14.08844879 21.45284637 15.0625 24.375 C14.4025 25.365 13.7425 26.355 13.0625 27.375 C11.0625 24.375 11.0625 24.375 11.0625 20.375 C10.4025 20.375 9.7425 20.375 9.0625 20.375 C8.22330602 18.10617913 7.39098276 15.83522973 6.5625 13.5625 C6.32402344 12.91990234 6.08554688 12.27730469 5.83984375 11.61523438 C4.79181254 8.72566261 4.0625 6.47423939 4.0625 3.375 C1.7525 3.375 -0.5575 3.375 -2.9375 3.375 C-2.6293335 4.07584717 -2.32116699 4.77669434 -2.00366211 5.4987793 C-0.61365411 8.68086807 0.75581454 11.87139976 2.125 15.0625 C2.85299805 16.71668945 2.85299805 16.71668945 3.59570312 18.40429688 C4.05009766 19.47099609 4.50449219 20.53769531 4.97265625 21.63671875 C5.39683838 22.61600342 5.82102051 23.59528809 6.25805664 24.60424805 C7.14365071 27.65450816 6.94989122 29.36171763 6.0625 32.375 C3.45262202 29.23711202 2.08366293 26.19805016 0.6875 22.375 C-1.40029535 16.75889398 -3.65070453 11.24124793 -6.01953125 5.73828125 C-6.9375 3.375 -6.9375 3.375 -6.9375 1.375 C-4.50270995 0.15760498 -2.71670476 0.10372147 0 0 Z " fill="#85C5EA" transform="translate(216.9375,229.625)"/>
<path d="M0 0 C1.19109375 -0.00386719 1.19109375 -0.00386719 2.40625 -0.0078125 C4.5 0.125 4.5 0.125 6.5 1.125 C7.83602205 0.80261207 9.16891752 0.46721092 10.5 0.125 C12.24886981 0.05875493 14.00002748 0.03947405 15.75 0.0625 C16.64203125 0.07152344 17.5340625 0.08054688 18.453125 0.08984375 C19.12859375 0.10144531 19.8040625 0.11304688 20.5 0.125 C19.18 0.455 17.86 0.785 16.5 1.125 C16.5 1.785 16.5 2.445 16.5 3.125 C15.08398286 3.60608275 13.66715563 4.08478141 12.25 4.5625 C11.46109375 4.82933594 10.6721875 5.09617188 9.859375 5.37109375 C7.75178012 6.04454708 5.65246027 6.61650595 3.5 7.125 C3.5 5.805 3.5 4.485 3.5 3.125 C1.19 3.125 -1.12 3.125 -3.5 3.125 C-3.5 15.335 -3.5 27.545 -3.5 40.125 C-1.52 40.125 0.46 40.125 2.5 40.125 C2.5 40.455 2.5 40.785 2.5 41.125 C-0.47 41.125 -3.44 41.125 -6.5 41.125 C-6.5 27.925 -6.5 14.725 -6.5 1.125 C-4.13386544 -0.05806728 -2.63219264 -0.00854608 0 0 Z " fill="#53C3E5" transform="translate(170.5,229.875)"/>
<path d="M0 0 C1.65 0 3.3 0 5 0 C5 11.55 5 23.1 5 35 C3.35 35 1.7 35 0 35 C0 23.45 0 11.9 0 0 Z " fill="#B0F5FE" transform="translate(198,234)"/>
<path d="M0 0 C3.63 0 7.26 0 11 0 C13.44852182 2.44852182 12.48512199 8.69229648 12.625 12 C12.6765625 13.03640625 12.728125 14.0728125 12.78125 15.140625 C12.82507813 16.12546875 12.86890625 17.1103125 12.9140625 18.125 C12.9548291 19.03507812 12.9955957 19.94515625 13.03759766 20.8828125 C13 23 13 23 12 24 C12.66 24.33 13.32 24.66 14 25 C12.35 25.33 10.7 25.66 9 26 C9 18.74 9 11.48 9 4 C6.69 4 4.38 4 2 4 C2 22.15 2 40.3 2 59 C1.67 59 1.34 59 1 59 C0.67 39.53 0.34 20.06 0 0 Z " fill="#C673DC" transform="translate(360,210)"/>
<path d="M0 0 C1.65 0 3.3 0 5 0 C1.44384172 8.15522836 1.44384172 8.15522836 -2.04296875 10.1953125 C-4.00366737 10.87387851 -6.00136412 11.44300311 -8 12 C-10.67848546 14.67848546 -10.30504006 16.13970861 -10.4140625 19.8828125 C-10.47207031 21.63271484 -10.47207031 21.63271484 -10.53125 23.41796875 C-10.5621875 24.64128906 -10.593125 25.86460937 -10.625 27.125 C-10.68300781 28.97158203 -10.68300781 28.97158203 -10.7421875 30.85546875 C-10.8366999 33.90349376 -10.92225494 36.95150862 -11 40 C-13.97 39.67 -16.94 39.34 -20 39 C-19.34 37.68 -18.68 36.36 -18 35 C-17.01 35 -16.02 35 -15 35 C-14.95101562 33.74703125 -14.90203125 32.4940625 -14.8515625 31.203125 C-14.77651417 29.55206179 -14.70096723 27.90102119 -14.625 26.25 C-14.57859375 25.0125 -14.57859375 25.0125 -14.53125 23.75 C-14.49257812 22.95078125 -14.45390625 22.1515625 -14.4140625 21.328125 C-14.3826416 20.5949707 -14.3512207 19.86181641 -14.31884766 19.10644531 C-13.96227477 16.75077082 -13.16337117 15.06549409 -12 13 C-12.66 13 -13.32 13 -14 13 C-13.67 11.35 -13.34 9.7 -13 8 C-10.03 7.34 -7.06 6.68 -4 6 C-4 5.34 -4 4.68 -4 4 C-3.01 3.67 -2.02 3.34 -1 3 C-0.67 2.01 -0.34 1.02 0 0 Z " fill="#83E2F5" transform="translate(187,231)"/>
<path d="M0 0 C1.32 0.33 2.64 0.66 4 1 C3.67 2.98 3.34 4.96 3 7 C1.33710938 7.36351562 1.33710938 7.36351562 -0.359375 7.734375 C-1.82309243 8.07215594 -3.28662469 8.41073998 -4.75 8.75 C-5.47960937 8.90726563 -6.20921875 9.06453125 -6.9609375 9.2265625 C-11.32706282 10.25855576 -14.29001645 11.17249747 -17 15 C-17.73251208 18.05931515 -17.59069285 20.91590176 -17 24 C-15.14579161 26.44098818 -15.14579161 26.44098818 -13 28 C-13 28.66 -13 29.32 -13 30 C-9.04 30 -5.08 30 -1 30 C-1 30.33 -1 30.66 -1 31 C-13.89265303 31.86078544 -13.89265303 31.86078544 -17.75 28.6875 C-20.9394078 24.87792957 -21.30105471 21.91258699 -21.2109375 16.9921875 C-20.7649775 12.78034306 -18.66560127 10.62962282 -15.6875 7.8125 C-10.58536796 4.58941403 -3.85470105 4.60953052 2 4 C1.34 2.68 0.68 1.36 0 0 Z " fill="#B3C5EC" transform="translate(270,240)"/>
<path d="M0 0 C2.35837698 1.60369635 4.29229919 2.9688814 6.125 5.125 C5.795 5.785 5.465 6.445 5.125 7.125 C4.135 7.125 3.145 7.125 2.125 7.125 C1.2278125 6.196875 1.2278125 6.196875 0.3125 5.25 C-2.36556563 2.64845053 -4.2335266 1.91041583 -7.875 1.125 C-12.6714432 1.37744438 -15.99233814 2.27010158 -19.875 5.125 C-21.59558611 8.56617222 -21.39145999 12.36222005 -20.875 16.125 C-19.02079161 18.56598818 -19.02079161 18.56598818 -16.875 20.125 C-16.875 20.785 -16.875 21.445 -16.875 22.125 C-17.535 22.125 -18.195 22.125 -18.875 22.125 C-18.875 21.465 -18.875 20.805 -18.875 20.125 C-19.49375 19.856875 -20.1125 19.58875 -20.75 19.3125 C-22.875 18.125 -22.875 18.125 -24.875 15.125 C-25.17578125 12.78515625 -25.17578125 12.78515625 -25.1875 10.1875 C-25.20425781 9.33285156 -25.22101563 8.47820312 -25.23828125 7.59765625 C-24.80179351 4.62672356 -23.97863854 3.24834476 -21.875 1.125 C-20.885 1.125 -19.895 1.125 -18.875 1.125 C-18.875 0.465 -18.875 -0.195 -18.875 -0.875 C-12.39517082 -3.69954092 -6.18581641 -3.40023735 0 0 Z " fill="#D189E9" transform="translate(350.875,231.875)"/>
<path d="M0 0 C0.99 0 1.98 0 3 0 C5.33991708 3.65612044 5.37437949 6.73207376 5 11 C3.20071992 15.16675387 1.05717865 17.02342579 -3 19 C-3.66 19 -4.32 19 -5 19 C-4.67 20.65 -4.34 22.3 -4 24 C-2.35 24.33 -0.7 24.66 1 25 C-2.19893186 27.13262124 -4.22998243 27.59021548 -8 28 C-9 27 -9 27 -9.09765625 24.49609375 C-9.08605469 23.48675781 -9.07445312 22.47742188 -9.0625 21.4375 C-9.05347656 20.42558594 -9.04445312 19.41367187 -9.03515625 18.37109375 C-9.02355469 17.58863281 -9.01195312 16.80617188 -9 16 C-8.44570312 15.84144531 -7.89140625 15.68289063 -7.3203125 15.51953125 C-2.7340699 14.1072341 -2.7340699 14.1072341 0.5625 10.8125 C1.1587804 6.97926885 0.64819737 3.82436448 0 0 Z " fill="#75BCE3" transform="translate(223,262)"/>
<path d="M0 0 C4.08375 -0.0928125 4.08375 -0.0928125 8.25 -0.1875 C9.10110352 -0.21481201 9.95220703 -0.24212402 10.82910156 -0.27026367 C11.5094043 -0.27775635 12.18970703 -0.28524902 12.890625 -0.29296875 C13.92751465 -0.31653442 13.92751465 -0.31653442 14.98535156 -0.34057617 C17 0 17 0 21 3 C14.73 2.67 8.46 2.34 2 2 C2 7.94 2 13.88 2 20 C11.23651388 20.36616627 11.23651388 20.36616627 19.3125 16.75 C20.97023116 14.04851218 21.73062297 12.14273205 22 9 C22.33 9 22.66 9 23 9 C23.32521241 13.6613779 22.81951666 16.24064446 20 20 C16.95318939 22.03120707 16.39881676 22.24659875 12.98828125 22.1953125 C12.30548096 22.19031738 11.62268066 22.18532227 10.91918945 22.18017578 C10.05898193 22.16196777 9.19877441 22.14375977 8.3125 22.125 C4.1978125 22.063125 4.1978125 22.063125 0 22 C0 14.74 0 7.48 0 0 Z " fill="#5AE7F8" transform="translate(124,222)"/>
<path d="M0 0 C0.66 0 1.32 0 2 0 C2.73080266 1.97746603 3.39421747 3.98072489 4 6 C3.67 6.66 3.34 7.32 3 8 C2.01 8.33 1.02 8.66 0 9 C-0.16802051 10.45817797 -0.33437143 11.9165484 -0.5 13.375 C-0.5928125 14.18710937 -0.685625 14.99921875 -0.78125 15.8359375 C-1.03352351 17.96912825 -1.03352351 17.96912825 -1 20 C-1.99 20 -2.98 20 -4 20 C-4.33 22.31 -4.66 24.62 -5 27 C-6.32 27 -7.64 27 -9 27 C-8.42415568 24.61435923 -7.77772405 22.33317216 -7 20 C-6.73687158 17.46060191 -6.55702161 14.92167071 -6.37890625 12.375 C-6 10 -6 10 -4 7 C-3.34 7 -2.68 7 -2 7 C-2.33 6.01 -2.66 5.02 -3 4 C-2.67 3.34 -2.34 2.68 -2 2 C-1.34 2 -0.68 2 0 2 C0 1.34 0 0.68 0 0 Z " fill="#CFF2FB" transform="translate(236,253)"/>
<path d="M0 0 C1.20462891 -0.02126953 1.20462891 -0.02126953 2.43359375 -0.04296875 C4.5625 0.1875 4.5625 0.1875 6.5625 2.1875 C5.9025 3.5075 5.2425 4.8275 4.5625 6.1875 C4.2325 5.8575 3.9025 5.5275 3.5625 5.1875 C1.5825 5.1875 -0.3975 5.1875 -2.4375 5.1875 C-4.7475 11.1275 -7.0575 17.0675 -9.4375 23.1875 C-10.4275 22.8575 -11.4175 22.5275 -12.4375 22.1875 C-6.88335327 0.05506683 -6.88335327 0.05506683 0 0 Z " fill="#92C8EC" transform="translate(244.4375,229.8125)"/>
<path d="M0 0 C2.91493885 1.60646544 5.07523015 3.26437539 7 6 C7.7012794 9.70340213 7.35410817 13.14825059 6.9375 16.875 C6.85822266 17.84953125 6.77894531 18.8240625 6.69726562 19.828125 C6.49763579 22.22368306 6.26450268 24.61088189 6 27 C5.67 27 5.34 27 5 27 C4.93941406 25.74703125 4.87882812 24.4940625 4.81640625 23.203125 C4.73197744 21.55207276 4.64733061 19.90103165 4.5625 18.25 C4.52318359 17.425 4.48386719 16.6 4.44335938 15.75 C4.40146484 14.95078125 4.35957031 14.1515625 4.31640625 13.328125 C4.27974854 12.5949707 4.24309082 11.86181641 4.20532227 11.10644531 C3.99350143 8.93332974 3.76404283 7.05048423 3 5 C-3.24452893 2.91849036 -10.63224179 3.62318741 -17 5 C-16.67 4.34 -16.34 3.68 -16 3 C-15.34 3 -14.68 3 -14 3 C-14 2.34 -14 1.68 -14 1 C-9.48400999 -1.47651065 -4.81513505 -1.70124645 0 0 Z " fill="#CF7FE6" transform="translate(387,230)"/>
<path d="M0 0 C0 0.33 0 0.66 0 1 C-1.98 1 -3.96 1 -6 1 C-6 2.32 -6 3.64 -6 5 C-4.700625 5.12375 -3.40125 5.2475 -2.0625 5.375 C0.15234375 5.5859375 0.15234375 5.5859375 2 6 C3.35439668 8.70879335 3.06501451 11.00933268 3 14 C2.01 14.495 2.01 14.495 1 15 C1.33 13.02 1.66 11.04 2 9 C-3.0247239 8.37470103 -7.92528427 7.86987908 -13 8 C-13.33 8.99 -13.66 9.98 -14 11 C-15.32 11 -16.64 11 -18 11 C-16.36721828 4.2356186 -16.36721828 4.2356186 -14.1796875 2.83203125 C-9.16837562 0.61516278 -5.48012349 -0.46639349 0 0 Z " fill="#E7ECFC" transform="translate(272,232)"/>
<path d="M0 0 C-0.36833856 6.38453501 -0.36833856 6.38453501 -3.4375 9.375 C-7.27666059 11.80958964 -9.39650024 12.54158821 -14 12 C-16.9375 9.75 -16.9375 9.75 -19 7 C-18.85817944 4.51814024 -18.10376548 3.20753096 -17 1 C-15.68 1.33 -14.36 1.66 -13 2 C-13.33 2.61875 -13.66 3.2375 -14 3.875 C-15.14193235 5.91018344 -15.14193235 5.91018344 -15 8 C-12.03 8 -9.06 8 -6 8 C-6 7.34 -6 6.68 -6 6 C-5.34 6 -4.68 6 -4 6 C-4 4.35 -4 2.7 -4 1 C-5.65 1 -7.3 1 -9 1 C-9 0.67 -9 0.34 -9 0 C-5.62182575 -0.84454356 -3.32534757 -1.10844919 0 0 Z " fill="#BDC6ED" transform="translate(276,253)"/>
<path d="M0 0 C0.99 0 1.98 0 3 0 C1.68780729 5.83196759 -1.37987757 10.26871876 -6 14 C-9.875 14.5625 -9.875 14.5625 -13 14 C-14 13 -14 13 -14.0625 10.4375 C-14.041875 9.633125 -14.02125 8.82875 -14 8 C-12.02 7.01 -10.04 6.02 -8 5 C-8 5.66 -8 6.32 -8 7 C-7.34 7 -6.68 7 -6 7 C-5.67 6.34 -5.34 5.68 -5 5 C-5 5.66 -5 6.32 -5 7 C-4.01 6.67 -3.02 6.34 -2 6 C-0.77479736 2.99152582 -0.77479736 2.99152582 0 0 Z " fill="#B3E6F8" transform="translate(232,273)"/>
<path d="M0 0 C1.32 0.33 2.64 0.66 4 1 C4 9.58 4 18.16 4 27 C3.34 25.68 2.68 24.36 2 23 C1.01 23 0.02 23 -1 23 C-0.98259766 21.84371094 -0.98259766 21.84371094 -0.96484375 20.6640625 C-0.95582031 19.66117187 -0.94679687 18.65828125 -0.9375 17.625 C-0.92589844 16.62726563 -0.91429687 15.62953125 -0.90234375 14.6015625 C-0.81993398 12.01567547 -0.81993398 12.01567547 -2 10 C-2.16796875 8.125 -2.16796875 8.125 -2.1875 6 C-2.20167969 5.29875 -2.21585938 4.5975 -2.23046875 3.875 C-2 2 -2 2 0 0 Z " fill="#90F8FE" transform="translate(171,243)"/>
<path d="M0 0 C0.33 0.66 0.66 1.32 1 2 C2.81957468 2.50592229 2.81957468 2.50592229 5 2.8125 C10.9470917 4.03046438 16.96734512 6.18555478 20.625 11.25 C21.17198983 15.26125875 20.64139361 19.02162614 20 23 C19.01 23 18.02 23 17 23 C17.01160156 22.39671875 17.02320313 21.7934375 17.03515625 21.171875 C17.04417969 20.37265625 17.05320312 19.5734375 17.0625 18.75 C17.07410156 17.96109375 17.08570313 17.1721875 17.09765625 16.359375 C17.00385306 14.09308998 16.63241063 12.1711105 16 10 C15.27554687 9.81824219 14.55109375 9.63648438 13.8046875 9.44921875 C8.53200943 8.07832245 3.74516295 6.69320059 -1 4 C-0.67 2.68 -0.34 1.36 0 0 Z " fill="#D483ED" transform="translate(337,242)"/>
<path d="M0 0 C2.47751402 1.85453028 2.96945822 2.79438191 3.43237305 5.91088867 C3.45855713 7.0682251 3.48474121 8.22556152 3.51171875 9.41796875 C3.54716797 10.67158203 3.58261719 11.92519531 3.61914062 13.21679688 C3.64169922 14.52712891 3.66425781 15.83746094 3.6875 17.1875 C3.72067666 18.52282013 3.75516666 19.85810832 3.79101562 21.19335938 C3.87362057 24.46215504 3.94273229 27.73067812 4 31 C2.68 31 1.36 31 0 31 C-0.16727437 26.74607233 -0.32786758 22.49196191 -0.48217773 18.23754883 C-0.53566237 16.78923699 -0.59099659 15.34099225 -0.64819336 13.89282227 C-0.72992512 11.81541418 -0.80507768 9.7378583 -0.87890625 7.66015625 C-0.9260376 6.40855713 -0.97316895 5.15695801 -1.02172852 3.86743164 C-1 1 -1 1 0 0 Z " fill="#CB87E8" transform="translate(311,240)"/>
<path d="M0 0 C4.06148459 8.12296917 3.15830981 18.06429066 3 27 C1.06257659 27.02703381 -0.87495479 27.04641125 -2.8125 27.0625 C-3.89144531 27.07410156 -4.97039062 27.08570313 -6.08203125 27.09765625 C-9 27 -9 27 -12 26 C-11.505 24.515 -11.505 24.515 -11 23 C-7.7 23.33 -4.4 23.66 -1 24 C-0.67 16.08 -0.34 8.16 0 0 Z " fill="#CDC5EF" transform="translate(281,244)"/>
<path d="M0 0 C2.25 -0.3125 2.25 -0.3125 5 0 C7.3125 2.25 7.3125 2.25 9 5 C9 6.32 9 7.64 9 9 C9.99 9 10.98 9 12 9 C12 9.66 12 10.32 12 11 C11.34 11 10.68 11 10 11 C10 11.66 10 12.32 10 13 C7.21176345 14.0326802 6.1322726 14.04509293 3.25 13.0625 C2.5075 12.711875 1.765 12.36125 1 12 C1 11.01 1 10.02 1 9 C-0.65 8.67 -2.3 8.34 -4 8 C-1.08235 6.0549 0.62537285 5.54723683 4 5 C2.68 3.35 1.36 1.7 0 0 Z " fill="#EAA2F6" transform="translate(343,256)"/>
<path d="M0 0 C6.58452041 -0.25821649 9.91937635 0.14553109 14.875 4.5625 C18.96746461 10.5035857 16.76677062 19.2509002 16 26 C15.67 26 15.34 26 15 26 C14.96261719 25.05898437 14.92523438 24.11796875 14.88671875 23.1484375 C14.78810547 21.28058594 14.78810547 21.28058594 14.6875 19.375 C14.62949219 18.14523438 14.57148438 16.91546875 14.51171875 15.6484375 C13.97441165 11.81756095 13.00666252 9.28896881 11 6 C6.73167782 3.4620787 2.40763637 3.49312919 -2.375 4.5 C-3.179375 4.7475 -3.179375 4.7475 -4 5 C-3.67 4.34 -3.34 3.68 -3 3 C-2.34 3 -1.68 3 -1 3 C-0.67 2.01 -0.34 1.02 0 0 Z " fill="#D993EC" transform="translate(306,229)"/>
<path d="M0 0 C0 0.99 0 1.98 0 3 C-0.969375 3.2475 -1.93875 3.495 -2.9375 3.75 C-3.948125 4.1625 -4.95875 4.575 -6 5 C-6.91428339 6.90708843 -6.91428339 6.90708843 -7 9 C-7.33 9.99 -7.66 10.98 -8 12 C-6.02463255 11.65213292 -6.02463255 11.65213292 -4 11 C-3.67 10.34 -3.34 9.68 -3 9 C-1.68 9.33 -0.36 9.66 1 10 C0.01 11.32 -0.98 12.64 -2 14 C-9.75 13.125 -9.75 13.125 -12 12 C-11.92500423 8.85017752 -11.59766298 6.69832201 -9.515625 4.265625 C-4.7625 0 -4.7625 0 0 0 Z " fill="#ADCFF1" transform="translate(262,231)"/>
<path d="M0 0 C1.98 0 3.96 0 6 0 C8.33954141 4.53286148 8.75262159 9.0036808 8 14 C5.94161475 17.33600367 4.2606736 18.8262176 1 21 C-1.76655324 21.14245897 -4.42653306 21.18769445 -7.1875 21.125 C-7.93708984 21.11597656 -8.68667969 21.10695312 -9.45898438 21.09765625 C-11.30612654 21.07412578 -13.15310412 21.03825561 -15 21 C-15 20.34 -15 19.68 -15 19 C-13.33710937 18.96132812 -13.33710937 18.96132812 -11.640625 18.921875 C-10.17704453 18.86558344 -8.71350438 18.80823633 -7.25 18.75 C-6.15558594 18.72873047 -6.15558594 18.72873047 -5.0390625 18.70703125 C-1.50441726 18.54636556 0.63896056 18.26685524 3.515625 16.140625 C5.58550427 13.15564121 5.0102825 11.14138443 4.75 7.5625 C3.9338856 3.68595658 3.02586009 2.44020975 0 0 Z " fill="#27D1E4" transform="translate(140,225)"/>
<path d="M0 0 C0.94875 0.04125 1.8975 0.0825 2.875 0.125 C2.875 0.785 2.875 1.445 2.875 2.125 C3.535 2.125 4.195 2.125 4.875 2.125 C4.875 2.785 4.875 3.445 4.875 4.125 C4.215 4.125 3.555 4.125 2.875 4.125 C2.875 6.105 2.875 8.085 2.875 10.125 C0.565 10.125 -1.745 10.125 -4.125 10.125 C-5.1015625 4.0703125 -5.1015625 4.0703125 -5.125 2.125 C-3.125 0.125 -3.125 0.125 0 0 Z " fill="#B3F0FD" transform="translate(202.125,215.875)"/>
<path d="M0 0 C2.31 0.33 4.62 0.66 7 1 C7 1.33 7 1.66 7 2 C4.69 2.33 2.38 2.66 0 3 C-0.33 12.57 -0.66 22.14 -1 32 C-1.99 31.67 -2.98 31.34 -4 31 C-4.02898816 27.06251542 -4.04679464 23.12505821 -4.0625 19.1875 C-4.07087891 18.06794922 -4.07925781 16.94839844 -4.08789062 15.79492188 C-4.09111328 14.72177734 -4.09433594 13.64863281 -4.09765625 12.54296875 C-4.10289307 11.55321045 -4.10812988 10.56345215 -4.11352539 9.54370117 C-4 7 -4 7 -3 4 C-2.34 4 -1.68 4 -1 4 C-0.67 2.68 -0.34 1.36 0 0 Z " fill="#CE7AE2" transform="translate(373,238)"/>
<path d="M0 0 C2.95871269 2.6148623 3.71697558 4.69368949 4.0546875 8.6875 C3.90142183 15.16844835 1.98102354 20.4256215 -2.5 25.125 C-5.52073733 28 -5.52073733 28 -9 28 C-9 27.34 -9 26.68 -9 26 C-8.071875 25.278125 -7.14375 24.55625 -6.1875 23.8125 C-2.81261501 21.03599887 -0.85449839 18.32361577 0 14 C0.2308531 9.32137711 0.17524643 4.67972871 0 0 Z " fill="#60E4F7" transform="translate(156,224)"/>
<path d="M0 0 C1.32 0 2.64 0 4 0 C4.97983928 2.60391539 5.95889794 5.20811968 6.9375 7.8125 C7.21529297 8.55048828 7.49308594 9.28847656 7.77929688 10.04882812 C8.18051758 11.11713867 8.18051758 11.11713867 8.58984375 12.20703125 C8.83597412 12.8616333 9.08210449 13.51623535 9.33569336 14.19067383 C9.92037033 15.78311815 10.46355559 17.39066676 11 19 C10.34 19.99 9.68 20.98 9 22 C7 19 7 19 7 15 C6.34 15 5.68 15 5 15 C3.35 10.05 1.7 5.1 0 0 Z " fill="#96CEEC" transform="translate(221,235)"/>
<path d="M0 0 C3.0215835 1.67794318 5.71514518 3.50242264 7.9609375 6.14453125 C7.6309375 6.80453125 7.3009375 7.46453125 6.9609375 8.14453125 C5.9709375 8.14453125 4.9809375 8.14453125 3.9609375 8.14453125 C3.06375 7.21640625 3.06375 7.21640625 2.1484375 6.26953125 C-1.55607933 2.67085776 -5.4008004 2.03724596 -10.4140625 2.01953125 C-11.6103125 2.06078125 -12.8065625 2.10203125 -14.0390625 2.14453125 C-14.0390625 1.15453125 -14.0390625 0.16453125 -14.0390625 -0.85546875 C-9.33990448 -2.42185476 -4.5789293 -1.92104505 0 0 Z " fill="#D98CF2" transform="translate(349.0390625,230.85546875)"/>
<path d="M0 0 C0.99 0 1.98 0 3 0 C3 1.70767472 2.972343 3.41715972 2.859375 5.12109375 C2.51655664 10.18630411 2.51655664 10.18630411 5 14.4375 C5.66 14.953125 6.32 15.46875 7 16 C7 16.66 7 17.32 7 18 C10.96 18 14.92 18 19 18 C19 18.33 19 18.66 19 19 C6.10734697 19.86078544 6.10734697 19.86078544 2.25 16.6875 C-0.49031978 13.41434026 -1.1407055 11.14625138 -1.125 7 C-1.12757813 6.319375 -1.13015625 5.63875 -1.1328125 4.9375 C-1 3 -1 3 0 0 Z " fill="#ACC5EF" transform="translate(250,252)"/>
<path d="M0 0 C0.99 0 1.98 0 3 0 C3 5.94 3 11.88 3 18 C2.34 18 1.68 18 1 18 C1.08378906 18.78246094 1.16757812 19.56492187 1.25390625 20.37109375 C1.35574219 21.38300781 1.45757812 22.39492188 1.5625 23.4375 C1.66691406 24.44683594 1.77132813 25.45617187 1.87890625 26.49609375 C1.91886719 27.32238281 1.95882813 28.14867187 2 29 C1 30 1 30 -2.0625 30.0625 C-3.031875 30.041875 -4.00125 30.02125 -5 30 C-5.33 28.68 -5.66 27.36 -6 26 C-5.67 26.66 -5.34 27.32 -5 28 C-3.35 28 -1.7 28 0 28 C0 18.76 0 9.52 0 0 Z " fill="#E8A7F6" transform="translate(320,241)"/>
<path d="M0 0 C0.33 0 0.66 0 1 0 C1.52880073 6.55335186 2.05524342 13.11446541 2.25 19.6875 C2.27578125 20.45449219 2.3015625 21.22148437 2.328125 22.01171875 C1.91000053 24.54535393 0.97973577 25.42521018 -1 27 C-1.33 27 -1.66 27 -2 27 C-1.86057319 23.43721911 -1.71232922 19.8748574 -1.5625 16.3125 C-1.52318359 15.30509766 -1.48386719 14.29769531 -1.44335938 13.25976562 C-1.40146484 12.28330078 -1.35957031 11.30683594 -1.31640625 10.30078125 C-1.27974854 9.40528564 -1.24309082 8.50979004 -1.20532227 7.5871582 C-0.99938249 4.99221912 -0.56232178 2.53945316 0 0 Z " fill="#DD71EE" transform="translate(394,239)"/>
<path d="M0 0 C0.33 0 0.66 0 1 0 C1.33 4.62 1.66 9.24 2 14 C5.96 10.535 5.96 10.535 10 7 C10.66 7.33 11.32 7.66 12 8 C12 10 12 10 10.42578125 11.69140625 C9.72839844 12.30886719 9.03101562 12.92632812 8.3125 13.5625 C7.62800781 14.18253906 6.94351563 14.80257813 6.23828125 15.44140625 C3.78247738 17.15146863 1.94283389 17.6237708 -1 18 C-2 15 -2 15 -1 12 C-0.77674186 9.94106379 -0.59294241 7.87766347 -0.4375 5.8125 C-0.35371094 4.72582031 -0.26992187 3.63914062 -0.18359375 2.51953125 C-0.12300781 1.68808594 -0.06242187 0.85664063 0 0 Z " fill="#65D9EB" transform="translate(113,272)"/>
<path d="M0 0 C1.4540625 0.0309375 1.4540625 0.0309375 2.9375 0.0625 C3.2675 0.7225 3.5975 1.3825 3.9375 2.0625 C3.6075 2.7225 3.2775 3.3825 2.9375 4.0625 C2.2775 4.0625 1.6175 4.0625 0.9375 4.0625 C0.9375 5.7125 0.9375 7.3625 0.9375 9.0625 C0.2775 9.0625 -0.3825 9.0625 -1.0625 9.0625 C-1.0625 10.0525 -1.0625 11.0425 -1.0625 12.0625 C-1.7225 12.0625 -2.3825 12.0625 -3.0625 12.0625 C-5.01393115 9.19274831 -5.05180952 7.93635237 -4.75 4.375 C-3.85832367 0.0787413 -3.85832367 0.0787413 0 0 Z " fill="#D9EFFC" transform="translate(245.0625,233.9375)"/>
<path d="M0 0 C3 1 3 1 4 3 C4.99 3 5.98 3 7 3 C7 3.66 7 4.32 7 5 C5.71086513 5.67154933 4.41859796 6.33708859 3.125 7 C2.40570313 7.37125 1.68640625 7.7425 0.9453125 8.125 C-1 9 -1 9 -3 9 C-3.66 7.35 -4.32 5.7 -5 4 C-3.36587557 2.29159719 -2.13093906 1.06546953 0 0 Z " fill="#F1ACF8" transform="translate(350,236)"/>
<path d="M0 0 C0.99 0.33 1.98 0.66 3 1 C2.84152588 1.53463867 2.68305176 2.06927734 2.51977539 2.62011719 C1.89799663 5.46704032 1.7835446 8.16527157 1.68359375 11.078125 C1.64169922 12.23828125 1.59980469 13.3984375 1.55664062 14.59375 C1.49766602 16.40359375 1.49766602 16.40359375 1.4375 18.25 C1.37272461 20.08304687 1.37272461 20.08304687 1.30664062 21.953125 C1.20062645 24.9686392 1.09856064 27.98423448 1 31 C-0.65 31 -2.3 31 -4 31 C-3.34 30.34 -2.68 29.68 -2 29 C-1.03880849 25.46807459 -0.89206335 22.16191577 -0.9375 18.515625 C-0.94523437 17.49855469 -0.95296875 16.48148437 -0.9609375 15.43359375 C-0.98027344 13.85771484 -0.98027344 13.85771484 -1 12.25 C-1.02537979 10.15109172 -1.04645668 8.05212541 -1.0625 5.953125 C-1.07410156 5.02661133 -1.08570313 4.10009766 -1.09765625 3.14550781 C-1 1 -1 1 0 0 Z " fill="#DABFF8" transform="translate(298,240)"/>
<path d="M0 0 C0.99 0 1.98 0 3 0 C5.34144827 3.65851291 5.44965259 6.72830036 5 11 C3 13.9375 3 13.9375 1 16 C1.01160156 15.26394531 1.02320313 14.52789062 1.03515625 13.76953125 C1.04417969 12.79371094 1.05320313 11.81789063 1.0625 10.8125 C1.07410156 9.84957031 1.08570313 8.88664062 1.09765625 7.89453125 C1.00486622 5.14423487 0.62111685 2.67520409 0 0 Z " fill="#95D9F4" transform="translate(223,262)"/>
<path d="M0 0 C0.98291016 0.04833984 1.96582031 0.09667969 2.97851562 0.14648438 C4.51475586 0.2305957 4.51475586 0.2305957 6.08203125 0.31640625 C7.11779297 0.36861328 8.15355469 0.42082031 9.22070312 0.47460938 C11.77895174 0.60429018 14.33681063 0.73925603 16.89453125 0.87890625 C16.89453125 1.20890625 16.89453125 1.53890625 16.89453125 1.87890625 C8.97453125 2.20890625 1.05453125 2.53890625 -7.10546875 2.87890625 C-7.10546875 6.17890625 -7.10546875 9.47890625 -7.10546875 12.87890625 C-7.43546875 12.87890625 -7.76546875 12.87890625 -8.10546875 12.87890625 C-8.10546875 8.91890625 -8.10546875 4.95890625 -8.10546875 0.87890625 C-5.02085369 -0.14929877 -3.20861636 -0.16692224 0 0 Z " fill="#5EE1F5" transform="translate(121.10546875,211.12109375)"/>
<path d="M0 0 C0.33 0.66 0.66 1.32 1 2 C2.98507977 2.61559872 2.98507977 2.61559872 5.3125 3 C8.54002544 3.59749231 11.11680802 4.41655361 14 6 C14 6.66 14 7.32 14 8 C8.33557626 7.63495936 3.99296295 6.9445679 -1 4 C-0.67 2.68 -0.34 1.36 0 0 Z " fill="#D68EE9" transform="translate(337,242)"/>
<path d="M0 0 C1.43739513 -0.02712066 2.87493863 -0.04645067 4.3125 -0.0625 C5.51326172 -0.07990234 5.51326172 -0.07990234 6.73828125 -0.09765625 C9 0 9 0 12 1 C14.14255793 0.61067144 14.14255793 0.61067144 16 0 C16 2 16 2 14.25 4.125 C12 6 12 6 8 6 C8 4.68 8 3.36 8 2 C5.36 2 2.72 2 0 2 C0 1.34 0 0.68 0 0 Z " fill="#CDA4EE" transform="translate(289,230)"/>
<path d="M0 0 C2.75059381 -0.08107646 5.49879021 -0.14052813 8.25 -0.1875 C9.02730469 -0.21263672 9.80460938 -0.23777344 10.60546875 -0.26367188 C11.35957031 -0.27333984 12.11367187 -0.28300781 12.890625 -0.29296875 C13.92751465 -0.31653442 13.92751465 -0.31653442 14.98535156 -0.34057617 C17 0 17 0 21 3 C14.73 2.67 8.46 2.34 2 2 C1.67 2.66 1.34 3.32 1 4 C0.67 2.68 0.34 1.36 0 0 Z " fill="#66F5FC" transform="translate(124,222)"/>
<path d="M0 0 C2.28085043 0.91234017 3.70988267 1.58094164 5.125 3.625 C6.33160835 6.9000798 6.18941155 9.77177622 6.125 13.25 C6.10695312 14.51328125 6.08890625 15.7765625 6.0703125 17.078125 C6.04710937 18.04234375 6.02390625 19.0065625 6 20 C5.67 20 5.34 20 5 20 C4.34 15.38 3.68 10.76 3 6 C2.01 6 1.02 6 0 6 C0.33 5.01 0.66 4.02 1 3 C0.67 2.01 0.34 1.02 0 0 Z " fill="#4DEAF2" transform="translate(151,218)"/>
<path d="M0 0 C1.21730284 3.65190853 0.64600214 4.53670162 -0.8125 8 C-1.16957031 8.86625 -1.52664062 9.7325 -1.89453125 10.625 C-3 13 -3 13 -5 16 C-5.83796731 11.34462607 -6.0161692 7.62921525 -5 3 C-3.02 3.495 -3.02 3.495 -1 4 C-0.67 2.68 -0.34 1.36 0 0 Z " fill="#A2E1F6" transform="translate(240,257)"/>
<path d="M0 0 C0.99 0.66 1.98 1.32 3 2 C2.67 2.66 2.34 3.32 2 4 C1.34 3.67 0.68 3.34 0 3 C-5.04364616 3.9863881 -5.04364616 3.9863881 -8.9375 7.125 C-9.288125 7.74375 -9.63875 8.3625 -10 9 C-9.835 8.236875 -9.67 7.47375 -9.5 6.6875 C-8.90854604 3.96403764 -8.90854604 3.96403764 -9 1 C-5.98131566 -0.50934217 -3.32702771 -0.17510672 0 0 Z " fill="#66B6DA" transform="translate(204,211)"/>
<path d="M0 0 C0.99 0.66 1.98 1.32 3 2 C3 2.66 3 3.32 3 4 C-0.96 4 -4.92 4 -9 4 C-9.33 3.01 -9.66 2.02 -10 1 C-6.87293041 -0.5635348 -3.42017557 -0.39958487 0 0 Z " fill="#A2BAE5" transform="translate(271,229)"/>
<path d="M0 0 C0.99 0.33 1.98 0.66 3 1 C2.62875 1.5775 2.2575 2.155 1.875 2.75 C0.71815699 4.96255418 0.71815699 4.96255418 1.8125 7 C2.4003125 7.99 2.4003125 7.99 3 9 C3.36784131 10.3242287 3.71202981 11.65613912 4 13 C0.83884224 11.63016497 0.0072908 11.0109362 -2 8 C-1.43396226 1.43396226 -1.43396226 1.43396226 0 0 Z " fill="#72D2ED" transform="translate(194,213)"/>
<path d="M0 0 C0.99 0 1.98 0 3 0 C3.0825 1.2375 3.165 2.475 3.25 3.75 C3.72327372 7.74810336 4.87569098 9.37961179 8 12 C8 12.66 8 13.32 8 14 C7.34 14 6.68 14 6 14 C6 13.34 6 12.68 6 12 C5.38125 11.731875 4.7625 11.46375 4.125 11.1875 C2 10 2 10 0 7 C-0.07905064 4.66800612 -0.08798769 2.33167378 0 0 Z " fill="#E195F3" transform="translate(326,240)"/>
<path d="M0 0 C3.33333333 2.66666667 6.66666667 5.33333333 10 8 C6.63295715 8.2295711 4.58629732 8.33943529 1.625 6.625 C1.08875 6.08875 0.5525 5.5525 0 5 C0 4.34 0 3.68 0 3 C-1.32 2.67 -2.64 2.34 -4 2 C-2.68 1.34 -1.36 0.68 0 0 Z " fill="#D78EEA" transform="translate(334,257)"/>
<path d="M0 0 C0.80824219 0.10183594 1.61648438 0.20367187 2.44921875 0.30859375 C3.06410156 0.39238281 3.67898438 0.47617188 4.3125 0.5625 C4.3125 1.5525 4.3125 2.5425 4.3125 3.5625 C0.3525 3.5625 -3.6075 3.5625 -7.6875 3.5625 C-7.6875 2.5725 -7.6875 1.5825 -7.6875 0.5625 C-4.59271121 -0.46909626 -3.16118607 -0.41232862 0 0 Z " fill="#C880E4" transform="translate(342.6875,229.4375)"/>
<path d="M0 0 C3.375 -0.125 3.375 -0.125 7 0 C9 2 9 2 9 4 C8.39671875 3.98839844 7.7934375 3.97679687 7.171875 3.96484375 C6.37265625 3.95582031 5.5734375 3.94679687 4.75 3.9375 C3.96109375 3.92589844 3.1721875 3.91429687 2.359375 3.90234375 C0.09308998 3.99614694 -1.8288895 4.36758937 -4 5 C-3.67 4.34 -3.34 3.68 -3 3 C-2.34 3 -1.68 3 -1 3 C-0.67 2.01 -0.34 1.02 0 0 Z " fill="#C08FE0" transform="translate(306,229)"/>
<path d="M0 0 C3.3 0 6.6 0 10 0 C8.68 0.33 7.36 0.66 6 1 C6 1.66 6 2.32 6 3 C4.58398286 3.48108275 3.16715563 3.95978141 1.75 4.4375 C0.96109375 4.70433594 0.1721875 4.97117188 -0.640625 5.24609375 C-2.74821988 5.91954708 -4.84753973 6.49150595 -7 7 C-7 6.34 -7 5.68 -7 5 C-4.69 3.68 -2.38 2.36 0 1 C0 0.67 0 0.34 0 0 Z " fill="#5ABFE1" transform="translate(181,230)"/>
<path d="M0 0 C1.45823212 -0.0270043 2.91660675 -0.04639787 4.375 -0.0625 C5.18710938 -0.07410156 5.99921875 -0.08570313 6.8359375 -0.09765625 C9 0 9 0 11 1 C12.99960012 1.039992 15.00047242 1.04346799 17 1 C14.08235 2.9451 12.37462715 3.45276317 9 4 C9 3.34 9 2.68 9 2 C6.03 2 3.06 2 0 2 C0 1.34 0 0.68 0 0 Z " fill="#79DAF2" transform="translate(166,230)"/>
<path d="M0 0 C2.31 0.33 4.62 0.66 7 1 C7 1.33 7 1.66 7 2 C4.69 2.33 2.38 2.66 0 3 C-0.33 8.28 -0.66 13.56 -1 19 C-1.33 19 -1.66 19 -2 19 C-2.33 14.05 -2.66 9.1 -3 4 C-2.34 4 -1.68 4 -1 4 C-0.67 2.68 -0.34 1.36 0 0 Z " fill="#D885EA" transform="translate(373,238)"/>
<path d="M0 0 C1.66611905 -0.042721 3.33382885 -0.04063832 5 0 C5.33 0.33 5.66 0.66 6 1 C7.99958364 1.04080783 10.00045254 1.04254356 12 1 C12 1.99 12 2.98 12 4 C10.56260487 4.02712066 9.12506137 4.04645067 7.6875 4.0625 C6.48673828 4.07990234 6.48673828 4.07990234 5.26171875 4.09765625 C3 4 3 4 0 3 C0 2.01 0 1.02 0 0 Z " fill="#C5CBF5" transform="translate(269,267)"/>
<path d="M0 0 C0 0.99 0 1.98 0 3 C-2.97 3 -5.94 3 -9 3 C-8.67 2.01 -8.34 1.02 -8 0 C-4.71023192 -1.09658936 -3.28696233 -0.79953138 0 0 Z " fill="#9AF3F9" transform="translate(186,238)"/>
<path d="M0 0 C2.55718711 2.20566004 3.43746239 3.6437312 3.8125 7 C3.90144531 7.680625 3.99039063 8.36125 4.08203125 9.0625 C4 11 4 11 2 14 C0.12175109 12.12175109 0.60897603 8.96064724 0.4375 6.4375 C0.35371094 5.23996094 0.26992187 4.04242188 0.18359375 2.80859375 C0.12300781 1.88175781 0.06242188 0.95492187 0 0 Z " fill="#6BEAFB" transform="translate(156,224)"/>
<path d="M0 0 C0.33 0 0.66 0 1 0 C0.97679688 1.13179688 0.95359375 2.26359375 0.9296875 3.4296875 C0.91093099 4.91145175 0.89273066 6.39322312 0.875 7.875 C0.85824219 8.62136719 0.84148437 9.36773437 0.82421875 10.13671875 C0.8066041 12.09194461 0.89679811 14.04742021 1 16 C1.66 16.66 2.32 17.32 3 18 C1.35 17.67 -0.3 17.34 -2 17 C-1.34 11.39 -0.68 5.78 0 0 Z " fill="#52C2E9" transform="translate(113,272)"/>
<path d="M0 0 C1.32 0.33 2.64 0.66 4 1 C3.67 1.66 3.34 2.32 3 3 C2.77532169 4.53668865 2.59203195 6.07968054 2.4375 7.625 C2.35371094 8.44226563 2.26992188 9.25953125 2.18359375 10.1015625 C2.12300781 10.72804688 2.06242187 11.35453125 2 12 C1.34 11.67 0.68 11.34 0 11 C0 7.37 0 3.74 0 0 Z " fill="#D57FF1" transform="translate(321,259)"/>
<path d="M0 0 C0 0.66 0 1.32 0 2 C-0.99 2.66 -1.98 3.32 -3 4 C-4.35251497 5.31387169 -5.68945377 6.64426252 -7 8 C-7.66 6.35 -8.32 4.7 -9 3 C-3.375 0 -3.375 0 0 0 Z " fill="#E8A0F5" transform="translate(334,256)"/>
<path d="M0 0 C0.556875 0.226875 1.11375 0.45375 1.6875 0.6875 C1.06875 0.77 0.45 0.8525 -0.1875 0.9375 C-2.49596804 1.47560733 -2.49596804 1.47560733 -3.3125 3.6875 C-4.3125 5.6875 -4.3125 5.6875 -6.4375 6.4375 C-7.365625 6.56125 -7.365625 6.56125 -8.3125 6.6875 C-8.125 4.875 -8.125 4.875 -7.3125 2.6875 C-3.3125 -0.44763514 -3.3125 -0.44763514 0 0 Z " fill="#A8D4F3" transform="translate(259.3125,247.3125)"/>
<path d="M0 0 C0.33 0 0.66 0 1 0 C1 3.3 1 6.6 1 10 C0.01 10 -0.98 10 -2 10 C-2 7.36 -2 4.72 -2 2 C-1.34 2 -0.68 2 0 2 C0 1.34 0 0.68 0 0 Z " fill="#A6A6E0" transform="translate(283,261)"/>
<path d="M0 0 C1.32 0.33 2.64 0.66 4 1 C5.125 5.75 5.125 5.75 4 8 C2.68 7.34 1.36 6.68 0 6 C0 4.02 0 2.04 0 0 Z " fill="#FBF5FC" transform="translate(276,255)"/>
<path d="M0 0 C0.99 0 1.98 0 3 0 C3 2.95274099 2.56108169 4.49058403 1.5 7.1875 C1.2215625 7.90292969 0.943125 8.61835938 0.65625 9.35546875 C0.4396875 9.89816406 0.223125 10.44085938 0 11 C-0.33 11 -0.66 11 -1 11 C-1.125 3.375 -1.125 3.375 0 0 Z " fill="#8EB7E7" transform="translate(250,252)"/>
<path d="M0 0 C1.98 0 3.96 0 6 0 C6.66 1.98 7.32 3.96 8 6 C7.34 6 6.68 6 6 6 C6 7.65 6 9.3 6 11 C5.67 11 5.34 11 5 11 C4.87625 9.39125 4.87625 9.39125 4.75 7.75 C3.94523098 3.7261549 3.12270126 2.51830747 0 0 Z " fill="#46D3EC" transform="translate(140,225)"/>
<path d="M0 0 C0.33 0 0.66 0 1 0 C1 1.65 1 3.3 1 5 C0.01 5 -0.98 5 -2 5 C-2 5.66 -2 6.32 -2 7 C-2.99 7 -3.98 7 -5 7 C-5 5.35 -5 3.7 -5 2 C-4.360625 1.855625 -3.72125 1.71125 -3.0625 1.5625 C-1.02454854 1.18992819 -1.02454854 1.18992819 0 0 Z " fill="#BFF4FA" transform="translate(203,218)"/>
<path d="M0 0 C2.475 0.495 2.475 0.495 5 1 C5 2.98 5 4.96 5 7 C2.525 6.01 2.525 6.01 0 5 C0 3.35 0 1.7 0 0 Z " fill="#D7F7FB" transform="translate(222,249)"/>
<path d="M0 0 C-0.33 0.99 -0.66 1.98 -1 3 C-4.96 3 -8.92 3 -13 3 C-13 2.67 -13 2.34 -13 2 C-11.39658445 1.66307215 -9.79223445 1.33058907 -8.1875 1 C-7.29417969 0.814375 -6.40085938 0.62875 -5.48046875 0.4375 C-3 0 -3 0 0 0 Z " fill="#68ECFA" transform="translate(145,252)"/>
<path d="M0 0 C2.97 0 5.94 0 9 0 C10.35439668 2.70879335 10.06501451 5.00933268 10 8 C9.01 8.495 9.01 8.495 8 9 C8.33 7.02 8.66 5.04 9 3 C4.545 2.01 4.545 2.01 0 1 C0 0.67 0 0.34 0 0 Z " fill="#D2E3F9" transform="translate(265,238)"/>
<path d="M0 0 C0.99 0 1.98 0 3 0 C3.33 0.66 3.66 1.32 4 2 C4.99 2.66 5.98 3.32 7 4 C6 5 6 5 3.4375 5.0625 C2.2309375 5.0315625 2.2309375 5.0315625 1 5 C0.67 3.35 0.34 1.7 0 0 Z " fill="#B9F2FE" transform="translate(218,282)"/>
<path d="M0 0 C1.32 0.33 2.64 0.66 4 1 C3.34 1.66 2.68 2.32 2 3 C1.29289322 4.64991582 0.62056011 6.31562256 0 8 C-0.66 7.34 -1.32 6.68 -2 6 C-1.64644564 3.73725212 -1.02455574 2.04911148 0 0 Z " fill="#C5D8F4" transform="translate(259,254)"/>
<path d="M0 0 C0.33 0 0.66 0 1 0 C1.32613618 4.67461851 0.70582788 7.16674383 -2 11 C-3.32 10.67 -4.64 10.34 -6 10 C-5.195625 9.278125 -4.39125 8.55625 -3.5625 7.8125 C-0.97707928 4.97484311 -0.31957187 3.72833853 0 0 Z " fill="#57E5FA" transform="translate(146,231)"/>
<path d="M0 0 C0.33 0.99 0.66 1.98 1 3 C1.66 3.33 2.32 3.66 3 4 C3 4.66 3 5.32 3 6 C1.68 6.33 0.36 6.66 -1 7 C-1.33 6.01 -1.66 5.02 -2 4 C-2.66 3.34 -3.32 2.68 -4 2 C-2.68 1.34 -1.36 0.68 0 0 Z " fill="#E0C3F6" transform="translate(302,234)"/>
<path d="M0 0 C0 0.33 0 0.66 0 1 C-1.98 1 -3.96 1 -6 1 C-6.33 2.65 -6.66 4.3 -7 6 C-7.99 4.68 -8.98 3.36 -10 2 C-6.3558226 -0.4294516 -4.28758728 -0.16179575 0 0 Z " fill="#DFE3F8" transform="translate(272,232)"/>
<path d="M0 0 C0.99 0 1.98 0 3 0 C1.25 5.75 1.25 5.75 -1 8 C-1.125 2.25 -1.125 2.25 0 0 Z " fill="#A0D0EC" transform="translate(232,273)"/>
<path d="M0 0 C0.33 0.66 0.66 1.32 1 2 C2.94576739 3.06327138 2.94576739 3.06327138 5 3.5 C7 4 7 4 9 5 C8 6 8 6 5.125 6.1875 C2 6 2 6 -1 4 C-0.67 2.68 -0.34 1.36 0 0 Z " fill="#A4BBD9" transform="translate(260,259)"/>
<path d="M0 0 C0.66 0.33 1.32 0.66 2 1 C2 1.66 2 2.32 2 3 C0.03533587 4.06775224 -1.96855359 5.06553465 -4 6 C-4.66 5.67 -5.32 5.34 -6 5 C-5.67 4.34 -5.34 3.68 -5 3 C-4.01 3 -3.02 3 -2 3 C-1.67 2.34 -1.34 1.68 -1 1 C-0.67 0.67 -0.34 0.34 0 0 Z " fill="#DB93F4" transform="translate(355,238)"/>
<path d="M0 0 C2.86724686 0.57344937 3.8614515 0.8614515 6 3 C5.01 3.66 4.02 4.32 3 5 C3 4.34 3 3.68 3 3 C1.02 3.99 1.02 3.99 -1 5 C-0.67 3.35 -0.34 1.7 0 0 Z " fill="#85E7EF" transform="translate(174,239)"/>
<path d="M0 0 C0.66 0.99 1.32 1.98 2 3 C1.25 6.125 1.25 6.125 0 9 C-0.99 9.495 -0.99 9.495 -2 10 C-2 8.35 -2 6.7 -2 5 C-1.34 5 -0.68 5 0 5 C0 3.35 0 1.7 0 0 Z " fill="#6BD2F1" transform="translate(207,215)"/>
<path d="M0 0 C1.32 0.33 2.64 0.66 4 1 C4 2.98 4 4.96 4 7 C3.34 7 2.68 7 2 7 C0.5393715 4.35261084 0 3.10551666 0 0 Z " fill="#70C5EA" transform="translate(214,241)"/>
<path d="M0 0 C0.82638376 2.89234315 1 4.88742431 1 8 C0.34 8 -0.32 8 -1 8 C-1.66 6.35 -2.32 4.7 -3 3 C-2.01 2.01 -1.02 1.02 0 0 Z " fill="#E096EC" transform="translate(348,237)"/>
<path d="M0 0 C0.66 0 1.32 0 2 0 C1.67 4.29 1.34 8.58 1 13 C0.67 13 0.34 13 0 13 C-0.19397476 11.02145742 -0.38001321 9.0421352 -0.5625 7.0625 C-0.66691406 5.96035156 -0.77132812 4.85820312 -0.87890625 3.72265625 C-0.91886719 2.82417969 -0.95882812 1.92570313 -1 1 C-0.67 0.67 -0.34 0.34 0 0 Z " fill="#96E7FD" transform="translate(175,242)"/>
<path d="M0 0 C1.32 0.99 2.64 1.98 4 3 C3.67 3.66 3.34 4.32 3 5 C2.01 5 1.02 5 0 5 C-0.66 3.68 -1.32 2.36 -2 1 C-1.34 0.67 -0.68 0.34 0 0 Z " fill="#CE75E5" transform="translate(353,234)"/>
<path d="M0 0 C2.475 0.495 2.475 0.495 5 1 C5 2.32 5 3.64 5 5 C3.0625 4.1875 3.0625 4.1875 1 3 C0.67 2.01 0.34 1.02 0 0 Z " fill="#B9C3F3" transform="translate(273,231)"/>
<path d="M0 0 C1.32 0.33 2.64 0.66 4 1 C4 1.66 4 2.32 4 3 C0.7 3 -2.6 3 -6 3 C-6 2.67 -6 2.34 -6 2 C-4.02 2 -2.04 2 0 2 C0 1.34 0 0.68 0 0 Z " fill="#D58BEF" transform="translate(384,230)"/>
</svg>
